<mxfile host="app.diagrams.net" agent="Mozilla/5.0 (Windows NT 10.0; Win64; x64) AppleWebKit/537.36 (KHTML, like Gecko) Chrome/128.0.0.0 Safari/537.36" version="24.7.17">
  <diagram name="Page-1" id="f0pX3HI1C7tOmwvQBDk0">
    <mxGraphModel dx="794" dy="420" grid="1" gridSize="10" guides="1" tooltips="1" connect="1" arrows="1" fold="1" page="1" pageScale="1" pageWidth="850" pageHeight="1100" math="0" shadow="0">
      <root>
        <mxCell id="0" />
        <mxCell id="1" parent="0" />
        <mxCell id="_gxVQNXC58SZ7B-Y3xLF-1" value="&lt;u&gt;4.1&lt;/u&gt;&lt;div&gt;Receive Patient Information&lt;/div&gt;" style="ellipse;whiteSpace=wrap;html=1;aspect=fixed;" vertex="1" parent="1">
          <mxGeometry x="345" y="90" width="80" height="80" as="geometry" />
        </mxCell>
        <mxCell id="_gxVQNXC58SZ7B-Y3xLF-2" value="Patient" style="shape=partialRectangle;whiteSpace=wrap;html=1;left=0;right=0;fillColor=none;" vertex="1" parent="1">
          <mxGeometry x="110" y="110" width="80" height="40" as="geometry" />
        </mxCell>
        <mxCell id="_gxVQNXC58SZ7B-Y3xLF-3" value="Medical History" style="html=1;verticalAlign=bottom;endArrow=block;curved=0;rounded=0;" edge="1" parent="1" source="_gxVQNXC58SZ7B-Y3xLF-2" target="_gxVQNXC58SZ7B-Y3xLF-1">
          <mxGeometry width="80" relative="1" as="geometry">
            <mxPoint x="240" y="140" as="sourcePoint" />
            <mxPoint x="320" y="140" as="targetPoint" />
          </mxGeometry>
        </mxCell>
        <mxCell id="_gxVQNXC58SZ7B-Y3xLF-4" value="Patient Database" style="shape=partialRectangle;whiteSpace=wrap;html=1;left=0;right=0;fillColor=none;" vertex="1" parent="1">
          <mxGeometry x="620" y="220" width="80" height="40" as="geometry" />
        </mxCell>
        <mxCell id="_gxVQNXC58SZ7B-Y3xLF-5" value="Patient Information" style="html=1;verticalAlign=bottom;endArrow=block;curved=0;rounded=0;" edge="1" parent="1" source="_gxVQNXC58SZ7B-Y3xLF-1" target="_gxVQNXC58SZ7B-Y3xLF-6">
          <mxGeometry x="0.3333" width="80" relative="1" as="geometry">
            <mxPoint x="440" y="160" as="sourcePoint" />
            <mxPoint x="520" y="160" as="targetPoint" />
            <mxPoint as="offset" />
          </mxGeometry>
        </mxCell>
        <mxCell id="_gxVQNXC58SZ7B-Y3xLF-6" value="&lt;u&gt;4.2&lt;/u&gt;&lt;div&gt;Add to Patient Database&lt;/div&gt;" style="ellipse;whiteSpace=wrap;html=1;aspect=fixed;" vertex="1" parent="1">
          <mxGeometry x="345" y="200" width="80" height="80" as="geometry" />
        </mxCell>
        <mxCell id="_gxVQNXC58SZ7B-Y3xLF-7" value="Update Information" style="html=1;verticalAlign=bottom;endArrow=block;curved=0;rounded=0;" edge="1" parent="1" source="_gxVQNXC58SZ7B-Y3xLF-6" target="_gxVQNXC58SZ7B-Y3xLF-4">
          <mxGeometry width="80" relative="1" as="geometry">
            <mxPoint x="450" y="250" as="sourcePoint" />
            <mxPoint x="530" y="250" as="targetPoint" />
          </mxGeometry>
        </mxCell>
        <mxCell id="_gxVQNXC58SZ7B-Y3xLF-8" value="&lt;u&gt;4.3&lt;/u&gt;&lt;div&gt;Access Patient Database&lt;/div&gt;" style="ellipse;whiteSpace=wrap;html=1;aspect=fixed;" vertex="1" parent="1">
          <mxGeometry x="345" y="310" width="80" height="80" as="geometry" />
        </mxCell>
        <mxCell id="_gxVQNXC58SZ7B-Y3xLF-9" value="Patient Information" style="html=1;verticalAlign=bottom;endArrow=block;curved=0;rounded=0;" edge="1" parent="1" source="_gxVQNXC58SZ7B-Y3xLF-4" target="_gxVQNXC58SZ7B-Y3xLF-8">
          <mxGeometry width="80" relative="1" as="geometry">
            <mxPoint x="470" y="310" as="sourcePoint" />
            <mxPoint x="550" y="310" as="targetPoint" />
          </mxGeometry>
        </mxCell>
        <mxCell id="_gxVQNXC58SZ7B-Y3xLF-10" value="Virtual Triage" style="shape=partialRectangle;whiteSpace=wrap;html=1;left=0;right=0;fillColor=none;" vertex="1" parent="1">
          <mxGeometry x="110" y="260" width="80" height="40" as="geometry" />
        </mxCell>
        <mxCell id="_gxVQNXC58SZ7B-Y3xLF-11" value="Patient Information" style="html=1;verticalAlign=bottom;endArrow=block;curved=0;rounded=0;" edge="1" parent="1" source="_gxVQNXC58SZ7B-Y3xLF-8" target="_gxVQNXC58SZ7B-Y3xLF-10">
          <mxGeometry width="80" relative="1" as="geometry">
            <mxPoint x="190" y="360" as="sourcePoint" />
            <mxPoint x="270" y="360" as="targetPoint" />
          </mxGeometry>
        </mxCell>
        <mxCell id="_gxVQNXC58SZ7B-Y3xLF-12" value="Nurse Hotline" style="shape=partialRectangle;whiteSpace=wrap;html=1;left=0;right=0;fillColor=none;" vertex="1" parent="1">
          <mxGeometry x="110" y="330" width="80" height="40" as="geometry" />
        </mxCell>
        <mxCell id="_gxVQNXC58SZ7B-Y3xLF-13" value="Patient Information" style="html=1;verticalAlign=bottom;endArrow=block;curved=0;rounded=0;" edge="1" parent="1" source="_gxVQNXC58SZ7B-Y3xLF-8" target="_gxVQNXC58SZ7B-Y3xLF-12">
          <mxGeometry width="80" relative="1" as="geometry">
            <mxPoint x="250" y="390" as="sourcePoint" />
            <mxPoint x="330" y="390" as="targetPoint" />
          </mxGeometry>
        </mxCell>
        <mxCell id="_gxVQNXC58SZ7B-Y3xLF-14" value="GP Appointment" style="shape=partialRectangle;whiteSpace=wrap;html=1;left=0;right=0;fillColor=none;" vertex="1" parent="1">
          <mxGeometry x="110" y="400" width="80" height="40" as="geometry" />
        </mxCell>
        <mxCell id="_gxVQNXC58SZ7B-Y3xLF-15" value="Patient Information" style="html=1;verticalAlign=bottom;endArrow=block;curved=0;rounded=0;" edge="1" parent="1" source="_gxVQNXC58SZ7B-Y3xLF-8" target="_gxVQNXC58SZ7B-Y3xLF-14">
          <mxGeometry width="80" relative="1" as="geometry">
            <mxPoint x="355" y="360" as="sourcePoint" />
            <mxPoint x="200" y="360" as="targetPoint" />
          </mxGeometry>
        </mxCell>
      </root>
    </mxGraphModel>
  </diagram>
</mxfile>
